<?xml version="1.0" standalone="no"?>
<!DOCTYPE svg PUBLIC "-//W3C//DTD SVG 20010904//EN"
 "http://www.w3.org/TR/2001/REC-SVG-20010904/DTD/svg10.dtd">
<svg version="1.0" xmlns="http://www.w3.org/2000/svg"
 width="640.000000pt" height="640.000000pt" viewBox="0 0 640.000000 640.000000"
 preserveAspectRatio="xMidYMid meet">

<g transform="translate(0.000000,640.000000) scale(0.100000,-0.100000)"
fill="#000000" stroke="none">
<path d="M0 3200 l0 -3200 3200 0 3200 0 0 3200 0 3200 -3200 0 -3200 0 0
-3200z m3674 2966 c518 -91 947 -277 1360 -589 171 -130 428 -389 553 -558
150 -202 204 -289 301 -484 74 -147 77 -153 124 -280 71 -192 116 -363 154
-580 22 -125 27 -192 31 -397 10 -464 -48 -781 -226 -1243 -19 -48 -150 -305
-184 -360 -76 -125 -118 -186 -248 -360 -34 -46 -116 -133 -242 -257 -448
-445 -987 -715 -1647 -829 -121 -21 -167 -23 -445 -24 -280 0 -324 2 -450 23
-393 66 -734 186 -1057 372 -415 240 -785 598 -1048 1015 -85 135 -250 465
-233 465 3 0 1 6 -5 12 -19 24 -85 223 -126 381 -14 54 -38 169 -53 255 -26
149 -28 172 -28 472 0 300 2 323 28 472 36 201 95 432 141 548 8 19 24 62 36
95 27 72 159 339 202 410 283 459 649 823 1078 1070 316 182 646 302 1002 365
193 34 260 39 553 36 249 -3 296 -6 429 -30z"/>
<path d="M1473 4584 c-3 -9 -1 -25 5 -35 8 -13 12 -83 12 -213 0 -108 5 -207
10 -222 6 -14 24 -39 40 -54 22 -21 30 -37 30 -63 0 -31 -5 -37 -59 -71 -33
-20 -77 -57 -99 -81 l-40 -45 -117 0 c-98 0 -122 3 -137 17 -24 22 -53 6 -53
-28 0 -30 35 -37 67 -15 17 12 48 16 125 16 106 0 118 -5 85 -38 -16 -16 -39
-18 -181 -20 -140 -2 -170 1 -205 17 -48 21 -74 48 -85 87 -8 33 -41 43 -60
20 -16 -20 2 -56 29 -56 11 0 42 -20 70 -45 l51 -45 179 4 c164 4 180 3 180
-12 0 -36 -15 -44 -66 -38 -114 13 -109 13 -112 -16 -4 -34 28 -46 60 -24 12
9 40 16 61 16 36 0 39 -2 33 -22 -3 -13 -6 -35 -6 -50 l0 -28 -173 0 c-137 0
-177 3 -193 15 -40 30 -86 6 -64 -34 13 -24 37 -26 64 -6 16 12 54 15 177 15
87 0 164 -3 173 -6 10 -4 16 -18 16 -41 0 -34 0 -34 -37 -28 -21 4 -50 11 -65
17 -37 14 -58 4 -58 -27 0 -34 22 -41 64 -21 60 29 95 17 114 -39 5 -16 13
-38 17 -47 6 -16 0 -18 -57 -18 -61 0 -65 -2 -103 -40 l-39 -40 -102 0 c-75 0
-105 4 -113 14 -14 17 -47 10 -55 -11 -15 -39 37 -70 64 -38 10 11 36 15 111
15 l99 0 44 40 c41 38 46 40 108 40 57 0 66 -3 75 -22 8 -19 0 -30 -61 -89
l-71 -68 -91 -1 c-105 0 -100 4 -159 -113 -23 -45 -49 -83 -62 -89 -39 -19
-40 -48 -3 -68 26 -14 52 13 44 45 -4 17 8 50 42 114 l48 91 94 0 94 0 63 65
c34 36 68 65 75 65 6 0 37 -23 67 -50 31 -28 73 -61 94 -73 54 -31 54 -69 -1
-132 l-40 -46 0 -209 c0 -128 -4 -211 -10 -215 -33 -20 8 -72 42 -54 22 12 23
32 2 63 -13 20 -15 56 -12 224 l3 199 38 42 c25 27 37 51 37 70 l0 29 38 -13
c33 -12 37 -17 40 -50 3 -29 -2 -43 -22 -64 -33 -34 -49 -79 -42 -116 4 -18 0
-42 -9 -59 -20 -37 -19 -53 3 -65 39 -21 71 31 37 59 -10 8 -15 31 -15 66 0
48 4 59 35 93 28 31 35 46 35 81 0 39 2 42 23 36 12 -3 28 -6 35 -6 17 0 17
-489 0 -538 -11 -30 -11 -35 6 -47 36 -27 67 11 41 51 -12 19 -15 67 -15 279
l0 255 36 0 36 0 -6 -77 c-3 -43 -6 -94 -8 -113 -3 -40 15 -50 47 -26 19 14
19 16 3 44 -13 21 -18 51 -18 101 l0 71 40 0 40 0 0 -71 c0 -49 -5 -80 -17
-100 -16 -27 -16 -30 -1 -45 22 -23 58 -10 58 21 0 13 -4 27 -10 30 -5 3 -10
42 -10 86 l0 79 30 0 30 0 0 -264 c0 -166 -4 -267 -10 -271 -33 -20 9 -73 43
-54 19 11 23 44 7 54 -6 4 -10 105 -10 271 l0 264 35 0 c34 0 35 -1 35 -38 0
-27 7 -45 21 -58 48 -43 59 -115 27 -181 -15 -30 -3 -53 27 -53 33 0 41 22 22
63 -8 17 -15 53 -14 79 0 39 -6 53 -32 83 -22 25 -31 46 -31 70 0 34 1 35 40
35 28 0 40 -4 40 -15 0 -8 17 -30 38 -50 l37 -37 3 -200 c3 -168 1 -204 -12
-224 -21 -31 -20 -51 2 -63 39 -21 71 31 37 59 -12 10 -15 48 -15 224 l0 212
-35 34 c-19 19 -35 40 -35 47 0 11 215 13 1168 14 642 1 1230 3 1307 5 174 5
173 5 273 -2 69 -5 82 -3 82 10 0 8 -8 19 -17 24 -15 9 -15 11 2 28 22 22 45
76 45 104 0 11 9 38 20 60 11 22 20 55 20 75 0 42 219 492 251 514 10 7 19 24
19 36 0 29 110 251 144 290 51 59 43 147 -18 185 -40 24 -71 25 -119 5 -63
-26 -118 -20 -168 19 -24 19 -65 40 -91 47 -41 11 -55 11 -102 -4 -30 -10 -77
-35 -103 -56 l-48 -38 -245 -6 -245 -7 -57 40 c-53 38 -56 43 -51 74 4 28 1
36 -17 46 -20 11 -21 10 -10 -10 14 -25 -2 -50 -31 -50 -34 0 -89 33 -95 57
-6 21 -11 15 -50 -47 -59 -96 -132 -190 -148 -190 -8 0 -19 -6 -25 -14 -11
-13 -71 -30 -109 -31 -21 0 -33 -28 -30 -74 2 -31 -3 -49 -18 -66 -11 -12 -18
-27 -16 -34 7 -22 37 -10 59 23 19 30 20 36 8 46 -24 20 -17 30 23 31 20 1 51
5 67 8 42 10 81 -11 88 -47 3 -16 9 -41 13 -56 l6 -26 -596 0 -596 0 20 40
c11 22 31 47 45 56 29 19 33 49 7 63 -29 16 -54 -5 -47 -39 5 -21 -1 -41 -20
-75 l-27 -45 -284 0 c-314 0 -311 -1 -249 60 l35 34 0 212 c0 179 2 214 15
224 25 21 15 54 -18 58 -35 4 -46 -21 -23 -58 13 -23 16 -59 16 -209 0 -197
-6 -228 -54 -268 -14 -13 -26 -30 -26 -38 0 -11 -11 -15 -40 -15 -40 0 -40 0
-40 38 0 28 7 44 29 64 28 27 48 88 35 109 -3 6 2 28 11 49 22 49 14 72 -22
68 -31 -3 -33 -15 -14 -101 12 -55 0 -98 -38 -131 -14 -13 -21 -31 -21 -58 0
-37 -1 -38 -35 -38 l-35 0 0 260 c0 180 4 266 12 279 16 26 3 51 -27 51 -30 0
-43 -25 -27 -51 8 -13 12 -99 12 -279 l0 -260 -30 0 c-17 0 -30 5 -31 13 -3
50 4 144 12 152 17 17 10 53 -11 60 -40 13 -65 -31 -35 -61 11 -11 15 -37 15
-90 l0 -74 -40 0 -40 0 0 73 c0 49 5 80 15 95 21 29 4 65 -28 60 -19 -3 -22
-8 -19 -38 2 -19 5 -70 8 -112 l6 -78 -36 0 -36 0 0 255 c0 212 3 260 15 279
21 32 10 58 -24 54 -23 -3 -26 -7 -22 -33 2 -16 5 -148 8 -292 3 -209 1 -263
-9 -263 -7 0 -23 -3 -35 -6 -21 -6 -23 -3 -23 36 0 35 -7 50 -35 81 -30 34
-35 46 -35 90 0 32 6 56 16 66 24 24 14 57 -19 61 -36 4 -43 -17 -23 -68 9
-22 16 -59 16 -83 1 -32 8 -50 30 -77 23 -26 30 -44 30 -75 0 -39 -2 -41 -40
-52 -40 -10 -40 -10 -40 18 0 18 -14 44 -40 74 l-40 46 0 195 c0 153 3 201 15
224 8 16 12 36 9 44 -8 21 -53 20 -61 0z m3727 -217 l35 -22 -57 -3 c-32 -2
-84 -2 -115 0 l-58 3 40 22 c53 29 110 29 155 0z m338 -13 c14 -9 21 -22 18
-31 -3 -8 -1 -11 4 -8 5 3 12 -6 16 -19 8 -33 -23 -87 -60 -105 -32 -15 -93
-3 -88 18 1 7 -2 10 -7 6 -14 -8 -31 28 -31 67 1 37 23 73 40 63 6 -3 10 -3 9
2 -3 19 3 23 39 23 21 0 48 -7 60 -16z m-1395 -39 c31 -21 36 -29 27 -44 -13
-26 -41 -31 -82 -14 -42 17 -49 29 -37 61 11 30 45 29 92 -3z m1146 -41 c30
-50 27 -64 -11 -64 -226 -3 -772 1 -779 6 -13 8 -11 68 3 82 9 9 109 12 389
12 l377 0 21 -36z m-833 -9 c7 -18 -41 -85 -61 -85 -26 0 -27 21 -1 61 27 40
52 50 62 24z m-380 -22 c20 -13 20 -17 9 -66 -14 -63 -31 -69 -86 -33 -46 31
-50 57 -11 81 15 10 31 24 35 32 8 13 12 12 53 -14z m267 -66 c112 -77 183
-108 263 -115 81 -6 152 18 206 69 l41 39 203 3 c139 1 206 -2 214 -9 8 -8 -6
-45 -56 -140 -100 -193 -135 -258 -143 -267 -5 -4 -28 9 -52 29 -106 89 -226
156 -353 199 -71 24 -85 25 -314 25 l-240 0 -15 45 c-9 25 -12 47 -7 50 5 3
22 28 37 55 27 49 85 92 111 84 7 -2 54 -32 105 -67z m-393 24 c0 -12 -19 -17
-85 -26 -62 -8 -51 9 15 23 61 13 70 14 70 3z m809 -48 c-40 -47 -169 -58
-263 -22 -31 12 -56 26 -56 30 0 5 75 9 166 9 154 0 165 -1 153 -17z m586 -2
c3 -10 12 -54 19 -97 l14 -78 -65 -126 c-36 -69 -81 -153 -100 -188 l-35 -63
-21 33 c-11 18 -32 48 -47 66 l-27 33 109 206 c131 249 138 259 153 214z m85
-12 c7 -11 9 -32 5 -46 -8 -32 -12 -28 -23 25 -10 45 0 56 18 21z m-1374 -95
c6 -24 8 -47 4 -49 -4 -3 -10 8 -13 24 -3 16 -9 42 -13 57 -4 16 -3 25 2 21 4
-4 13 -28 20 -53z m-1772 -160 c3 -9 6 -174 6 -368 0 -260 -3 -355 -12 -364
-17 -17 -719 -17 -736 0 -9 9 -12 106 -12 373 0 199 3 365 7 368 3 4 172 7
374 7 325 0 368 -2 373 -16z m316 -369 l0 -215 -115 0 -115 0 0 215 0 215 115
0 115 0 0 -215z m648 201 c89 -46 110 -149 48 -230 -34 -46 -74 -56 -213 -56
l-113 0 0 -60 0 -60 -115 0 -116 0 3 108 3 107 189 3 c193 3 216 7 216 43 0
44 -20 49 -221 49 l-189 0 0 55 0 55 240 0 c188 0 247 -3 268 -14z m497 -18
c19 -18 102 -114 184 -213 l150 -180 -276 -3 c-152 -1 -278 0 -281 3 -3 2 13
24 34 49 l39 44 108 3 109 4 -67 80 c-36 44 -71 80 -78 80 -6 0 -60 -56 -119
-125 -59 -68 -114 -128 -123 -132 -8 -5 -48 -8 -89 -6 l-73 3 169 200 c94 110
180 205 192 212 39 23 84 16 121 -19z m955 12 c55 -19 80 -53 80 -109 0 -61
-27 -89 -99 -100 -69 -11 -72 -17 -10 -24 28 -4 62 -13 75 -22 21 -14 24 -23
24 -85 l0 -70 -110 0 -110 0 0 59 c0 77 -14 91 -86 91 l-54 0 0 -75 0 -75
-115 0 -116 0 3 113 3 112 187 3 c179 2 188 3 199 23 8 16 8 28 0 45 l-11 24
-190 0 -190 0 0 56 0 56 243 -4 c156 -3 254 -10 277 -18z m364 -432 c14 -23
19 -51 17 -96 -1 -13 -16 -39 -35 -58 -29 -29 -41 -34 -83 -34 -50 0 -85 17
-103 49 -8 16 -3 24 27 47 33 25 37 26 48 11 27 -37 71 -5 47 33 -9 14 -6 22
13 40 14 13 29 19 36 15 8 -5 10 -4 5 3 -4 7 -3 12 3 12 6 0 17 -10 25 -22z"/>
<path d="M5461 4296 c-17 -20 -2 -48 23 -44 24 3 34 37 14 49 -18 12 -24 11
-37 -5z"/>
<path d="M1688 3733 c-28 -10 -50 -24 -54 -35 -3 -10 -10 -18 -15 -18 -6 0 -8
-4 -5 -8 3 -5 6 -82 6 -170 1 -95 6 -160 11 -156 5 3 9 1 9 -4 0 -6 19 -18 43
-28 36 -16 77 -19 300 -22 l257 -3 -2 123 -2 123 -3 -119 -4 -119 -252 5
c-356 7 -347 2 -347 214 0 80 5 154 10 165 6 10 25 27 43 36 28 16 60 18 242
18 182 0 214 -2 242 -18 36 -19 53 -44 53 -77 0 -21 -3 -21 -115 -18 -63 2
-115 0 -115 -4 0 -5 56 -8 124 -8 l124 0 -8 33 c-13 54 -19 63 -58 83 -32 16
-63 19 -237 21 -162 1 -209 -1 -247 -14z"/>
<path d="M1867 3664 c-4 -4 -7 -69 -7 -145 0 -133 1 -137 23 -143 31 -8 90 -7
103 2 14 9 25 52 13 52 -5 0 -9 -9 -9 -19 0 -20 -29 -31 -70 -26 -14 2 -31 4
-38 4 -10 1 -12 31 -10 134 l3 132 48 3 c30 2 55 -2 64 -10 14 -11 15 -11 11
2 -3 11 -22 16 -64 18 -33 2 -63 0 -67 -4z"/>
<path d="M1967 3504 c-51 -40 -53 -53 -7 -48 16 2 30 -1 30 -6 0 -6 4 -10 10
-10 5 0 7 7 4 15 -4 8 -18 15 -33 15 l-26 1 35 29 c19 16 44 31 55 33 19 4 19
4 -1 6 -11 0 -42 -15 -67 -35z"/>
<path d="M2093 3533 c15 -2 37 -2 50 0 12 2 0 4 -28 4 -27 0 -38 -2 -22 -4z"/>
<path d="M4195 4531 c17 -4 40 -13 53 -20 12 -6 22 -9 22 -7 0 11 -60 36 -82
35 -19 -1 -18 -2 7 -8z"/>
<path d="M1144 2386 c-16 -12 -19 -27 -19 -96 0 -97 11 -110 90 -110 65 0 85
15 92 68 l6 42 -47 0 c-25 0 -46 -4 -46 -10 0 -5 14 -10 30 -10 25 0 30 -4 30
-25 0 -28 -25 -45 -69 -45 -46 0 -61 23 -61 90 0 71 15 90 71 90 28 0 42 -6
51 -20 15 -23 38 -27 38 -6 0 8 -7 22 -16 30 -20 21 -122 22 -150 2z"/>
<path d="M2190 2365 c0 -33 -1 -34 -29 -29 -16 3 -38 1 -50 -5 -18 -10 -21
-21 -21 -71 0 -69 11 -80 84 -78 l46 1 0 108 c0 90 -3 109 -15 109 -10 0 -15
-11 -15 -35z m-19 -55 c14 -8 19 -21 19 -48 0 -41 -14 -62 -42 -62 -35 0 -52
75 -22 104 18 19 20 19 45 6z"/>
<path d="M2530 2290 c0 -91 3 -110 15 -110 12 0 15 19 15 110 0 91 -3 110 -15
110 -12 0 -15 -19 -15 -110z"/>
<path d="M4120 2290 c0 -91 3 -110 15 -110 11 0 15 11 15 40 l0 40 43 0 c63 0
87 21 87 75 0 55 -16 65 -99 65 l-61 0 0 -110z m118 81 c9 -1 12 -13 10 -38
-3 -38 -3 -38 -50 -41 l-48 -3 0 44 0 44 38 -2 c20 -1 43 -3 50 -4z"/>
<path d="M4980 2385 c0 -8 7 -15 15 -15 8 0 15 7 15 15 0 8 -7 15 -15 15 -8 0
-15 -7 -15 -15z"/>
<path d="M3446 2383 c-13 -13 -5 -18 24 -17 45 2 50 3 50 12 0 10 -64 14 -74
5z"/>
<path d="M1350 2259 c0 -46 4 -79 10 -79 6 0 10 27 10 60 0 49 3 61 20 70 23
12 40 6 40 -16 0 -8 7 -14 15 -14 8 0 15 6 15 13 -1 28 -20 42 -65 43 l-45 2
0 -79z"/>
<path d="M1482 2269 c4 -81 12 -89 81 -87 l47 2 0 78 c0 45 -4 78 -10 78 -5 0
-10 -19 -10 -42 0 -59 -9 -86 -30 -93 -39 -12 -50 4 -50 71 0 52 -3 64 -16 64
-14 0 -16 -11 -12 -71z"/>
<path d="M1653 2324 c-10 -26 2 -197 15 -202 8 -2 12 8 12 31 0 35 0 35 38 31
20 -3 43 -1 51 4 22 15 26 97 7 127 -14 22 -23 25 -67 23 -28 -1 -53 -8 -56
-14z m91 -10 c12 -4 16 -20 16 -55 0 -56 -15 -69 -56 -51 -20 10 -24 19 -24
51 0 49 25 70 64 55z"/>
<path d="M1836 2324 c-10 -10 -16 -33 -16 -64 0 -58 18 -80 64 -80 52 0 69 19
69 80 1 40 -3 56 -18 66 -25 19 -80 18 -99 -2z m75 -14 c14 -8 19 -21 19 -55
0 -39 -3 -45 -25 -51 -35 -9 -55 1 -57 28 -5 77 16 103 63 78z"/>
<path d="M2278 2329 c-27 -15 -26 -124 1 -139 41 -21 111 -5 111 25 0 20 -26
19 -34 0 -8 -22 -53 -19 -66 4 -15 30 -14 31 45 31 l55 0 0 35 c0 29 -5 37
-26 45 -32 13 -64 12 -86 -1z m77 -25 c23 -23 7 -33 -39 -26 -38 7 -39 8 -22
25 22 21 40 22 61 1z"/>
<path d="M2610 2258 c0 -45 4 -78 10 -78 6 0 10 24 10 54 0 36 5 60 16 70 37
38 64 10 64 -66 0 -32 4 -58 10 -58 12 0 12 5 10 80 -1 66 -15 80 -77 78 l-43
-2 0 -78z"/>
<path d="M2786 2324 c-10 -10 -16 -33 -16 -64 0 -60 18 -80 69 -80 49 0 66 20
66 80 0 26 -6 54 -14 63 -17 22 -84 22 -105 1z m72 -10 c18 -5 22 -13 22 -48
0 -54 -11 -68 -46 -64 -27 3 -29 6 -32 52 -4 60 8 72 56 60z"/>
<path d="M2948 2260 c35 -106 51 -107 86 -3 14 42 24 78 22 81 -11 10 -27 -13
-42 -63 -10 -31 -21 -52 -25 -48 -3 5 -14 32 -24 61 -9 28 -23 52 -30 52 -10
0 -7 -20 13 -80z"/>
<path d="M3094 2326 c-26 -19 -10 -33 20 -17 32 17 60 10 64 -15 3 -18 -1 -21
-22 -17 -14 3 -37 2 -51 -1 -21 -5 -25 -12 -25 -46 0 -45 9 -50 83 -49 l47 2
0 68 c0 57 -3 70 -19 79 -28 14 -74 12 -97 -4z m70 -72 c23 -9 20 -41 -4 -49
-29 -9 -60 4 -60 25 0 25 31 37 64 24z"/>
<path d="M3264 2326 c-25 -19 -26 -113 -2 -130 9 -6 26 -18 37 -26 27 -19 27
-38 -1 -43 -17 -3 -14 -5 10 -6 38 -1 55 25 29 44 -13 10 -12 13 14 22 19 8
29 18 29 32 0 27 -26 27 -33 1 -6 -23 -45 -28 -65 -8 -21 21 -15 86 8 98 25
13 60 4 60 -16 0 -8 7 -14 15 -14 20 0 19 24 -1 44 -19 20 -74 21 -100 2z"/>
<path d="M3433 2333 c-15 -5 -18 -33 -4 -33 6 0 13 5 16 10 10 16 62 12 69 -6
10 -27 7 -30 -34 -26 -48 5 -70 -10 -70 -49 0 -36 25 -50 85 -47 l45 1 0 73
c0 56 -3 73 -16 78 -18 7 -73 7 -91 -1z m71 -79 c22 -8 20 -31 -3 -44 -28 -14
-51 -12 -57 5 -14 36 17 56 60 39z"/>
<path d="M3596 2324 c-10 -10 -16 -33 -16 -64 0 -58 18 -80 64 -80 51 0 66 17
67 79 1 42 -2 57 -17 68 -24 18 -79 16 -98 -3z m82 -16 c16 -16 16 -80 0 -96
-22 -22 -58 -14 -69 15 -23 62 28 122 69 81z"/>
<path d="M3868 2329 c-27 -15 -26 -124 1 -139 41 -21 111 -5 111 25 0 20 -26
19 -34 0 -11 -30 -76 -12 -76 22 0 9 17 13 55 13 l55 0 0 35 c0 24 -6 37 -19
45 -25 13 -71 12 -93 -1z m78 -26 c17 -17 17 -18 -9 -21 -15 -2 -37 -2 -49 0
-21 3 -21 4 -4 21 10 9 24 17 31 17 7 0 21 -8 31 -17z"/>
<path d="M4318 2329 c-27 -15 -26 -124 1 -139 41 -21 111 -5 111 25 0 20 -26
19 -34 0 -8 -22 -53 -19 -66 4 -15 30 -14 31 45 31 l55 0 0 35 c0 24 -6 37
-19 45 -25 13 -71 12 -93 -1z m77 -25 c19 -20 17 -23 -23 -28 -42 -5 -58 7
-37 28 21 20 39 20 60 0z"/>
<path d="M4488 2333 c-13 -3 -18 -14 -18 -38 0 -36 12 -45 65 -45 35 0 51 -20
32 -39 -16 -16 -67 -14 -73 4 -7 16 -34 21 -34 6 0 -22 34 -41 74 -41 49 0 66
13 66 52 0 31 -5 34 -64 43 -47 7 -50 9 -43 30 7 18 58 20 74 4 6 -6 17 -9 23
-7 9 3 8 9 -4 21 -17 16 -59 20 -98 10z"/>
<path d="M4658 2329 c-14 -8 -18 -23 -18 -69 0 -50 3 -61 21 -71 12 -6 34 -8
50 -5 28 5 29 4 29 -29 0 -24 5 -35 15 -35 12 0 15 19 15 108 l0 107 -48 2
c-26 1 -55 -3 -64 -8z m66 -22 c13 -9 17 -23 14 -51 -6 -74 -70 -75 -76 -2 -5
57 23 81 62 53z"/>
<path d="M4810 2277 c0 -82 13 -97 81 -96 l49 2 0 78 c0 64 -3 79 -15 79 -12
0 -15 -13 -15 -59 0 -62 -14 -86 -47 -79 -14 3 -19 16 -23 67 -7 90 -30 96
-30 8z"/>
<path d="M4980 2260 c0 -64 3 -80 15 -80 12 0 15 16 15 80 0 64 -3 80 -15 80
-12 0 -15 -16 -15 -80z"/>
<path d="M5068 2329 c-21 -12 -24 -52 -5 -67 7 -6 30 -12 52 -14 32 -2 40 -7
40 -23 0 -28 -61 -34 -80 -8 -16 22 -33 9 -19 -15 13 -21 89 -28 110 -11 9 7
14 25 12 43 -3 29 -7 32 -53 40 -60 10 -61 11 -45 31 15 18 43 19 70 3 26 -16
40 0 16 18 -23 16 -73 18 -98 3z"/>
<path d="M5235 2324 c-21 -22 -11 -30 19 -15 31 17 60 10 64 -15 3 -18 -1 -20
-33 -16 -43 5 -65 -11 -65 -48 0 -39 19 -50 79 -48 l51 2 0 68 c0 56 -3 69
-19 78 -29 15 -77 12 -96 -6z m83 -91 c4 -30 -42 -43 -65 -20 -14 13 -14 19
-3 32 19 23 64 15 68 -12z"/>
<path d="M3246 2082 c-4 -7 -17 -10 -33 -6 -16 4 -28 2 -34 -7 -15 -24 -10
-28 29 -22 42 6 56 16 50 34 -3 10 -6 10 -12 1z"/>
<path d="M4632 2070 c-28 -46 -6 -54 26 -10 21 27 21 30 5 30 -10 0 -24 -9
-31 -20z"/>
<path d="M1726 2033 c-8 -27 -20 -67 -26 -91 -6 -24 -14 -50 -17 -58 -4 -10 4
-14 31 -14 25 0 36 4 36 15 0 10 10 15 34 15 21 0 36 -6 40 -15 3 -9 18 -15
36 -15 25 0 30 4 27 18 -8 25 -48 165 -52 180 -3 7 -22 12 -49 12 -44 0 -44 0
-60 -47z m67 -81 c-22 -6 -25 2 -17 44 l8 39 11 -40 c10 -33 10 -41 -2 -43z"/>
<path d="M3960 1975 l0 -105 30 0 c27 0 30 3 30 31 0 27 3 30 28 27 21 -2 28
-9 30 -30 3 -24 8 -28 33 -28 26 0 29 3 29 33 0 18 -5 38 -12 45 -9 9 -9 15 0
24 17 17 15 74 -4 92 -11 12 -36 16 -90 16 l-74 0 0 -105z m118 33 c-2 -17
-11 -24 -30 -26 -24 -3 -28 0 -28 22 0 22 4 26 31 26 26 0 30 -3 27 -22z"/>
<path d="M4380 1975 l0 -106 33 2 c17 0 41 -2 52 -6 36 -11 60 18 60 73 0 63
-18 86 -62 79 -32 -6 -33 -5 -33 29 0 30 -3 34 -25 34 l-25 0 0 -105z m90 -31
c0 -28 -3 -35 -17 -32 -31 6 -29 68 2 68 11 0 15 -10 15 -36z"/>
<path d="M4940 2060 c0 -15 7 -20 25 -20 18 0 25 5 25 20 0 15 -7 20 -25 20
-18 0 -25 -5 -25 -20z"/>
<path d="M2133 2036 c3 -8 2 -16 -4 -18 -6 -2 -6 -27 -1 -67 11 -75 29 -95 81
-87 36 6 51 19 51 49 0 21 -35 23 -44 2 -11 -29 -26 -15 -26 25 0 38 2 40 30
40 23 0 30 4 30 20 0 16 -7 20 -30 20 -20 0 -30 5 -30 15 0 10 -10 15 -31 15
-23 0 -30 -4 -26 -14z"/>
<path d="M4760 2031 c-12 -23 -13 -51 -2 -51 4 0 8 -21 9 -47 2 -53 20 -73 64
-73 32 0 59 23 59 51 0 23 -35 26 -44 4 -11 -29 -26 -15 -26 25 0 38 2 40 30
40 23 0 30 4 30 20 0 16 -7 20 -30 20 -20 0 -30 5 -30 15 0 22 -47 19 -60 -4z"/>
<path d="M1110 2001 c-16 -31 -12 -107 6 -122 26 -21 93 -17 110 6 16 22 0 35
-19 16 -6 -6 -26 -11 -44 -11 -29 0 -33 3 -33 25 0 24 3 25 55 25 52 0 55 2
55 24 0 37 -26 56 -75 56 -34 0 -47 -5 -55 -19z m98 -23 c3 -15 -4 -18 -37
-18 -39 0 -53 14 -34 34 14 14 68 1 71 -16z"/>
<path d="M1300 1943 c0 -42 4 -73 10 -73 6 0 10 21 10 46 0 58 14 84 45 84 24
0 25 -3 25 -65 0 -51 3 -65 15 -65 12 0 15 13 15 60 0 55 2 60 24 66 38 9 46
-2 46 -67 0 -44 4 -59 14 -59 17 0 13 114 -5 136 -13 16 -65 19 -74 4 -5 -8
-11 -8 -19 -1 -7 6 -34 10 -59 9 l-47 -2 0 -73z"/>
<path d="M1940 1950 c0 -59 3 -71 20 -80 12 -6 31 -8 43 -4 12 4 32 7 44 5 20
-2 22 3 25 73 3 73 2 76 -19 76 -19 0 -22 -6 -25 -52 -2 -41 -7 -54 -20 -56
-15 -3 -18 5 -18 52 0 53 -1 56 -25 56 -24 0 -25 -2 -25 -70z"/>
<path d="M2310 2001 c-12 -24 -13 -101 -1 -120 13 -20 109 -21 121 -1 14 21
12 114 -2 128 -7 7 -33 12 -60 12 -37 0 -50 -4 -58 -19z m78 -62 c-2 -22 -8
-34 -18 -34 -20 0 -27 65 -8 76 19 12 30 -4 26 -42z"/>
<path d="M2494 1947 c1 -71 2 -72 29 -75 27 -3 27 -3 27 53 0 74 24 71 28 -3
3 -48 5 -52 28 -52 24 0 25 2 23 52 -3 43 0 54 14 56 14 3 17 -5 17 -52 0 -53
1 -56 25 -56 24 0 25 2 25 64 0 39 -5 67 -12 73 -7 6 -56 10 -109 11 l-97 1 2
-72z"/>
<path d="M2777 2013 c-4 -3 -7 -13 -7 -21 0 -11 9 -13 40 -8 31 5 40 3 40 -8
0 -10 -13 -16 -42 -18 -42 -3 -43 -4 -46 -40 -4 -47 17 -60 87 -51 l51 6 0 61
c0 35 -5 67 -12 74 -13 13 -100 17 -111 5z m73 -98 c0 -8 -9 -15 -20 -15 -11
0 -20 7 -20 15 0 8 9 15 20 15 11 0 20 -7 20 -15z"/>
<path d="M2966 2004 c-18 -17 -21 -85 -6 -114 5 -10 20 -20 32 -23 13 -4 29
-15 36 -27 11 -18 10 -20 -13 -20 -14 0 -25 -4 -25 -10 0 -5 16 -10 35 -10 42
0 59 25 30 46 -17 13 -16 14 9 23 19 8 26 18 26 36 0 29 -33 35 -48 8 -16 -28
-42 -8 -42 32 0 28 4 35 20 35 11 0 20 -4 20 -10 0 -5 13 -10 29 -10 25 0 28
3 23 23 -3 12 -10 25 -16 29 -20 14 -94 9 -110 -8z"/>
<path d="M3157 2013 c-4 -3 -7 -13 -7 -21 0 -11 9 -13 40 -8 32 5 40 3 40 -9
0 -11 -11 -15 -39 -15 -41 0 -51 -11 -51 -55 0 -33 28 -45 89 -38 l51 6 0 61
c0 35 -5 67 -12 74 -13 13 -100 17 -111 5z m73 -98 c0 -8 -9 -15 -20 -15 -11
0 -20 7 -20 15 0 8 9 15 20 15 11 0 20 -7 20 -15z"/>
<path d="M3346 2004 c-24 -24 -21 -99 5 -125 17 -17 29 -20 61 -16 22 3 46 11
52 17 17 17 14 119 -4 130 -24 16 -97 12 -114 -6z m76 -54 c5 -36 -5 -55 -26
-47 -10 4 -16 19 -16 42 0 28 4 35 19 35 13 0 20 -9 23 -30z"/>
<path d="M3656 1998 c-19 -27 -21 -88 -3 -111 25 -35 122 -26 135 12 4 11 -4
13 -42 8 -37 -5 -46 -4 -46 8 0 11 12 15 45 15 43 0 45 1 45 28 0 40 -28 62
-78 62 -31 0 -45 -5 -56 -22z m82 -25 c2 -8 -5 -13 -17 -13 -12 0 -21 6 -21
16 0 18 31 15 38 -3z"/>
<path d="M4202 2008 c-14 -14 -16 -106 -2 -128 12 -19 91 -20 113 -1 26 21 24
117 -2 131 -27 14 -94 13 -109 -2z m76 -65 c-2 -26 -8 -38 -18 -38 -10 0 -16
12 -18 38 -3 32 0 37 18 37 18 0 21 -5 18 -37z"/>
<path d="M4580 2001 c-16 -31 -12 -107 7 -122 22 -19 101 -18 113 1 14 22 12
114 -2 128 -7 7 -33 12 -60 12 -37 0 -50 -4 -58 -19z m78 -58 c-2 -26 -8 -38
-18 -38 -10 0 -16 12 -18 38 -3 32 0 37 18 37 18 0 21 -5 18 -37z"/>
<path d="M4940 1945 c0 -73 1 -75 25 -75 24 0 25 2 25 75 0 73 -1 75 -25 75
-24 0 -25 -2 -25 -75z"/>
<path d="M5056 2007 c-13 -10 -17 -24 -14 -67 3 -47 7 -56 30 -69 20 -11 35
-13 65 -6 31 8 39 15 41 38 3 22 -1 27 -19 27 -12 0 -27 -7 -34 -17 -17 -23
-35 -7 -35 32 0 35 26 57 36 30 9 -22 54 -19 54 3 0 10 -5 23 -12 30 -16 16
-90 15 -112 -1z"/>
<path d="M5242 2008 c-23 -23 -12 -31 33 -25 35 5 45 4 45 -8 0 -9 -14 -15
-42 -17 -42 -3 -43 -4 -46 -40 -4 -47 15 -58 86 -51 l52 6 0 61 c0 35 -5 67
-12 74 -7 7 -33 12 -58 12 -25 0 -51 -5 -58 -12z m78 -93 c0 -8 -9 -15 -20
-15 -11 0 -20 7 -20 15 0 8 9 15 20 15 11 0 20 -7 20 -15z"/>
<path d="M2368 1319 c-25 -14 -22 -55 4 -73 19 -13 25 -14 43 -2 56 37 11 109
-47 75z"/>
<path d="M2466 1314 c-19 -49 -2 -74 50 -74 29 0 39 19 30 56 -5 20 -12 25
-26 21 -11 -3 -23 -1 -26 4 -8 14 -21 11 -28 -7z m28 -16 c5 -10 7 -10 12 0 3
6 10 10 15 7 5 -4 3 -12 -4 -19 -6 -8 -16 -11 -21 -8 -5 3 -6 -2 -3 -12 4 -11
3 -15 -4 -11 -6 4 -8 13 -5 21 3 8 1 14 -4 14 -6 0 -10 5 -10 10 0 14 17 12
24 -2z m46 -28 c0 -5 -5 -10 -11 -10 -5 0 -7 5 -4 10 3 6 8 10 11 10 2 0 4 -4
4 -10z"/>
<path d="M2575 1312 c-3 -3 -5 -18 -5 -34 0 -32 18 -43 53 -34 18 4 23 13 25
40 3 34 2 35 -33 34 -19 -1 -37 -4 -40 -6z m45 -32 c0 -13 -6 -20 -17 -19 -11
0 -13 3 -5 6 17 7 15 21 -5 26 -14 4 -12 5 5 6 16 1 22 -5 22 -19z"/>
<path d="M2363 1213 c-7 -3 -13 -15 -13 -28 0 -43 10 -55 46 -55 34 0 34 1 31
38 -3 28 -8 37 -23 37 -10 -1 -21 2 -24 6 -3 3 -11 4 -17 2z m57 -67 c0 -5 -7
-1 -15 10 -8 10 -14 24 -14 29 0 6 6 1 14 -9 8 -11 15 -24 15 -30z"/>
<path d="M2473 1213 c-19 -7 -16 -70 3 -77 29 -11 62 -6 68 10 11 29 6 38 -10
18 -13 -16 -13 -14 1 9 9 16 15 30 13 31 -8 7 -64 13 -75 9z m42 -32 c-8 -14
-25 -14 -25 0 0 5 5 7 10 4 6 -3 10 -1 10 6 0 7 3 10 6 6 3 -3 3 -10 -1 -16z"/>
<path d="M2729 1193 c0 -16 -2 -36 -4 -45 -2 -10 1 -18 6 -18 5 0 9 20 9 45 0
48 -9 64 -11 18z"/>
<path d="M2873 1213 c-20 -7 -15 -31 7 -43 22 -12 17 -35 -6 -26 -8 3 -14 1
-14 -4 0 -17 40 -11 47 6 4 11 -2 23 -18 35 l-24 19 23 0 c12 0 22 5 22 10 0
10 -16 12 -37 3z"/>
<path d="M2924 1209 c-3 -5 1 -9 9 -9 9 0 13 -11 12 -35 0 -19 3 -35 7 -35 4
0 8 15 8 34 0 19 6 36 13 39 6 2 0 6 -16 9 -15 3 -30 1 -33 -3z"/>
<path d="M3110 1186 c0 -66 63 -79 68 -13 2 20 0 37 -5 37 -4 0 -8 -14 -9 -30
-2 -57 -34 -51 -34 6 0 19 -4 34 -10 34 -5 0 -10 -15 -10 -34z"/>
<path d="M3200 1210 c0 -5 5 -10 10 -10 6 0 10 -16 10 -35 0 -19 4 -35 10 -35
5 0 8 14 6 31 -2 20 1 32 11 36 12 5 12 7 1 14 -18 12 -48 11 -48 -1z"/>
<path d="M3285 1204 c-20 -20 -16 -53 8 -68 36 -23 75 35 47 70 -16 18 -35 18
-55 -2z m52 -20 c7 -19 -20 -49 -36 -40 -6 4 -11 18 -11 32 0 17 5 24 20 24
11 0 23 -7 27 -16z"/>
<path d="M3540 1174 c0 -40 2 -44 24 -44 56 0 63 70 9 81 l-33 6 0 -43z m50 2
c0 -13 -7 -26 -15 -30 -11 -4 -15 2 -15 24 0 20 5 30 15 30 9 0 15 -9 15 -24z"/>
<path d="M3630 1173 c0 -40 2 -43 28 -42 26 0 26 1 5 9 -27 11 -30 30 -6 30
15 0 14 2 -3 15 -18 14 -18 14 5 15 28 0 20 13 -9 15 -17 1 -20 -5 -20 -42z"/>
<path d="M2760 1170 c0 -22 5 -40 10 -40 6 0 10 15 10 33 l0 32 20 -32 c26
-44 40 -41 40 7 0 22 -5 40 -10 40 -6 0 -8 -11 -4 -25 3 -14 2 -25 -3 -25 -6
0 -15 11 -21 25 -19 40 -42 32 -42 -15z"/>
<path d="M3000 1170 c0 -22 5 -40 10 -40 6 0 10 18 10 40 0 22 -4 40 -10 40
-5 0 -10 -18 -10 -40z"/>
<path d="M3042 1203 c11 -3 18 -17 21 -41 l4 -37 1 37 c1 25 7 38 20 41 9 3
-1 5 -23 5 -22 0 -32 -2 -23 -5z"/>
<path d="M3400 1170 c0 -22 5 -40 10 -40 6 0 10 9 10 19 0 11 8 22 18 24 16 4
16 5 0 6 -10 0 -18 5 -18 10 0 5 8 12 18 14 10 3 6 5 -10 6 -26 1 -28 -2 -28
-39z"/>
<path d="M3470 1170 c0 -37 2 -40 28 -39 16 1 20 3 10 6 -10 2 -18 11 -18 18
0 7 8 16 18 18 16 4 16 5 0 6 -10 0 -18 5 -18 10 0 5 8 12 18 14 10 3 6 5 -10
6 -26 1 -28 -2 -28 -39z"/>
<path d="M3701 1168 c1 -24 3 -35 6 -25 6 22 19 22 32 0 5 -10 13 -15 16 -11
4 4 3 13 -1 20 -5 7 -7 23 -5 36 2 18 -2 22 -23 22 -24 0 -26 -3 -25 -42z m39
22 c0 -5 -7 -10 -15 -10 -8 0 -15 5 -15 10 0 6 7 10 15 10 8 0 15 -4 15 -10z"/>
<path d="M3782 1173 c-6 -20 -9 -39 -5 -42 3 -4 8 0 10 7 5 14 43 16 43 2 0
-5 4 -10 9 -10 16 0 -14 75 -31 78 -9 2 -19 -11 -26 -35z m38 6 c0 -5 -4 -9
-10 -9 -5 0 -10 7 -10 16 0 8 5 12 10 9 6 -3 10 -10 10 -16z"/>
<path d="M3860 1170 c0 -39 1 -40 33 -39 23 1 26 3 10 6 -19 4 -23 11 -23 39
0 19 -4 34 -10 34 -5 0 -10 -18 -10 -40z"/>
<path d="M2364 1102 c-5 -4 -9 -22 -10 -39 -1 -27 3 -33 20 -33 17 0 18 2 6
10 -8 5 -10 10 -4 10 6 0 14 -3 18 -7 21 -21 36 -10 36 26 0 35 -2 38 -28 39
-16 0 -32 -2 -38 -6z m33 -18 c-3 -3 -12 -4 -19 -1 -8 3 -5 6 6 6 11 1 17 -2
13 -5z"/>
<path d="M2462 1072 c-3 -38 -2 -38 38 -39 45 -2 56 10 46 52 -5 21 -12 25
-44 25 -37 0 -38 -1 -40 -38z m66 3 c-3 -3 -9 2 -12 12 -6 14 -5 15 5 6 7 -7
10 -15 7 -18z m-25 -5 c3 -11 1 -20 -4 -20 -5 0 -9 9 -9 20 0 11 2 20 4 20 2
0 6 -9 9 -20z"/>
<path d="M2570 1071 c0 -43 12 -52 30 -23 9 14 11 14 7 1 -4 -12 1 -16 19 -16
23 0 25 3 22 36 -4 34 -6 36 -41 39 l-37 3 0 -40z m50 14 c0 -8 -4 -15 -8 -15
-5 0 -9 7 -9 15 0 8 4 15 9 15 4 0 8 -7 8 -15z"/>
<path d="M2743 1094 c9 -3 17 -9 17 -14 0 -5 -8 -10 -17 -12 -15 -3 -15 -5 3
-10 17 -4 21 -1 20 16 -1 13 -8 21 -21 23 -16 1 -16 1 -2 -3z"/>
<path d="M2842 1070 c0 -14 2 -19 5 -12 2 6 2 18 0 25 -3 6 -5 1 -5 -13z"/>
<path d="M2803 1074 c13 -4 17 -12 14 -25 -3 -10 -1 -19 5 -19 19 0 3 45 -17
47 -17 2 -17 1 -2 -3z"/>
<path d="M2942 1074 c9 -3 19 -15 22 -27 4 -18 4 -18 3 3 -1 17 -8 25 -22 27
-14 1 -15 0 -3 -3z"/>
<path d="M2368 1003 c-10 -2 -18 -12 -18 -21 0 -15 2 -15 10 -2 5 8 10 10 10
4 0 -6 -3 -14 -7 -18 -20 -20 -9 -33 28 -33 39 0 39 1 37 33 -1 19 -5 34 -9
34 -4 0 -13 2 -21 4 -7 2 -21 2 -30 -1z m46 -29 c3 -8 2 -12 -4 -9 -6 3 -10 1
-10 -5 0 -6 -4 -8 -10 -5 -6 4 -5 11 3 20 15 18 14 18 21 -1z"/>
<path d="M2486 995 c-3 -8 -1 -15 3 -15 5 0 11 7 15 15 3 8 1 15 -3 15 -5 0
-11 -7 -15 -15z"/>
<path d="M2512 989 c-13 -21 -39 -21 -34 0 1 6 -2 11 -8 11 -5 0 -10 -16 -10
-35 0 -35 1 -36 38 -34 50 3 59 10 33 24 -21 11 -21 12 -5 26 16 13 17 12 10
-6 -6 -16 -5 -18 5 -7 11 10 10 15 -2 27 -13 13 -16 12 -27 -6z m-12 -34 c0
-2 -6 -5 -13 -8 -8 -3 -14 1 -14 8 0 7 6 11 14 8 7 -3 13 -6 13 -8z"/>
<path d="M3120 995 c0 -5 5 -17 10 -25 5 -8 10 -10 10 -5 0 6 -5 17 -10 25 -5
8 -10 11 -10 5z"/>
<path d="M3210 966 c0 -14 4 -27 8 -30 5 -3 6 8 4 25 -5 35 -12 38 -12 5z"/>
<path d="M3972 960 c0 -19 2 -27 5 -17 2 9 2 25 0 35 -3 9 -5 1 -5 -18z"/>
<path d="M2814 972 c3 -5 2 -12 -3 -14 -5 -1 -3 -9 5 -16 12 -11 14 -9 14 7 0
11 -5 23 -12 27 -6 4 -8 3 -4 -4z"/>
<path d="M3030 961 c0 -11 -8 -22 -17 -24 -14 -4 -12 -5 5 -6 17 -1 22 4 22
24 0 14 -2 25 -5 25 -3 0 -5 -9 -5 -19z"/>
<path d="M3392 965 c-10 -12 -10 -15 0 -16 7 0 4 -4 -7 -9 -19 -8 -19 -9 3 -9
17 -1 22 5 22 24 0 29 -1 29 -18 10z"/>
<path d="M3454 955 c1 -12 9 -21 21 -22 14 -1 15 0 3 3 -9 3 -19 13 -21 22 -3
12 -4 11 -3 -3z"/>
<path d="M3541 964 c0 -11 3 -14 6 -6 3 7 2 16 -1 19 -3 4 -6 -2 -5 -13z"/>
<path d="M3593 961 c1 -14 9 -26 17 -28 10 -3 11 -2 4 4 -7 4 -14 17 -17 28
-5 16 -5 15 -4 -4z"/>
<path d="M3653 964 c-3 -8 -2 -19 3 -24 5 -5 9 1 9 16 0 28 -3 30 -12 8z"/>
<path d="M3685 955 c0 -13 3 -21 8 -18 4 2 7 10 7 18 0 8 -3 16 -7 18 -5 3 -8
-5 -8 -18z"/>
<path d="M3710 955 c0 -14 2 -25 4 -25 2 0 6 11 8 25 3 14 1 25 -3 25 -5 0 -9
-11 -9 -25z"/>
<path d="M3748 953 c5 -21 7 -23 10 -9 2 10 0 22 -6 28 -6 6 -7 0 -4 -19z"/>
<path d="M3774 965 c-7 -17 3 -35 19 -35 8 0 7 3 -2 9 -8 5 -11 16 -8 25 4 9
4 16 1 16 -2 0 -7 -7 -10 -15z"/>
<path d="M3812 960 c0 -14 2 -19 5 -12 2 6 2 18 0 25 -3 6 -5 1 -5 -13z"/>
<path d="M3833 961 c1 -14 9 -26 17 -28 10 -3 11 -2 4 4 -7 4 -14 17 -17 28
-5 16 -5 15 -4 -4z"/>
<path d="M3872 955 c0 -16 2 -22 5 -12 2 9 2 23 0 30 -3 6 -5 -1 -5 -18z"/>
<path d="M3892 955 c0 -16 2 -22 5 -12 2 9 2 23 0 30 -3 6 -5 -1 -5 -18z"/>
<path d="M2970 957 c0 -8 -8 -18 -17 -20 -17 -4 -17 -5 0 -6 18 -1 35 25 23
36 -3 4 -6 -1 -6 -10z"/>
<path d="M3277 951 c-4 -17 -3 -21 5 -13 5 5 8 16 6 23 -3 8 -7 3 -11 -10z"/>
<path d="M3145 950 c-3 -5 -1 -10 4 -10 6 0 11 5 11 10 0 6 -2 10 -4 10 -3 0
-8 -4 -11 -10z"/>
<path d="M3517 953 c-10 -9 -9 -23 1 -23 5 0 9 7 9 15 0 17 -1 18 -10 8z"/>
<path d="M4007 953 c-10 -10 -8 -23 4 -23 5 0 8 4 4 9 -3 5 3 12 12 14 14 4
15 5 2 6 -9 0 -19 -2 -22 -6z"/>
<path d="M2737 939 c7 -7 15 -10 18 -7 3 3 -2 9 -12 12 -14 6 -15 5 -6 -5z"/>
<path d="M3065 940 c-19 -8 -19 -9 3 -9 12 -1 22 4 22 9 0 6 -1 10 -2 9 -2 0
-12 -4 -23 -9z"/>
<path d="M3928 933 c7 -3 16 -2 19 1 4 3 -2 6 -13 5 -11 0 -14 -3 -6 -6z"/>
</g>
</svg>
